﻿<svg width="200" height="44" viewBox="0 0 200 44" fill="none" xmlns="http://www.w3.org/2000/svg">
  <path fill-rule="evenodd" clip-rule="evenodd" d="M0 30.264V33.5973L22.0556 43.4307L44.0556 33.5973V30.264L22.0556 20.4307L0 30.264Z" fill="#297AC3"/>
  <path fill-rule="evenodd" clip-rule="evenodd" d="M0 23.097V26.3748L22.0556 36.2081L44.0556 26.3748V23.097L22.0556 13.2637L0 23.097Z" fill="#1ABC9C"/>
  <path fill-rule="evenodd" clip-rule="evenodd" d="M0 15.3197V18.6524L22.0556 28.4863L44.0556 18.6524V15.3197L22.0556 5.48633L0 15.3197Z" fill="#F1AF0F"/>
  <path fill-rule="evenodd" clip-rule="evenodd" d="M44.0556 30.2642L22.0556 40.0969L0 30.2642V33.5975L22.0556 43.4303L44.0556 33.5975V30.2642Z" fill="#256EB1"/>
  <path fill-rule="evenodd" clip-rule="evenodd" d="M44.0556 23.0972L22.0556 32.9305L0 23.0972V26.3749L22.0556 36.2083L44.0556 26.3749V23.0972Z" fill="#0DA084"/>
  <path fill-rule="evenodd" clip-rule="evenodd" d="M44.0556 15.3193L22.0556 25.1527L0 15.3193V18.6527L22.0556 28.486L44.0556 18.6527V15.3193Z" fill="#DC9E27"/>
  <path fill-rule="evenodd" clip-rule="evenodd" d="M55.5557 35.3749L58.7223 30.2644C59.7223 31.0416 60.889 31.6533 62.1112 32.0416C63.389 32.5416 64.7779 32.8194 66.1668 32.9311C67.1668 33.0422 68.1668 32.8749 69.1112 32.5416C69.7779 32.3194 70.2779 31.7083 70.2779 30.9866C70.2779 30.2083 69.7779 29.4861 69.0557 29.2083C67.7779 28.5977 66.4446 28.1527 65.1112 27.8194L62.7223 27.0977C61.9446 26.8749 61.2223 26.5422 60.5001 26.1527C59.7779 25.8199 59.1112 25.3749 58.5001 24.8194C58.0001 24.3199 57.5557 23.7083 57.2779 23.0422C56.889 22.2638 56.7223 21.4305 56.7223 20.5972C56.6668 18.3194 57.7223 16.1527 59.5557 14.8194C61.4446 13.3194 64.0001 12.5972 67.1112 12.5972C71.1668 12.5972 74.5557 13.4866 77.3334 15.2638L73.9446 19.9305C72.2779 18.7083 70.2779 17.9861 68.2223 17.8194C67.2223 17.6533 66.2223 17.7638 65.2779 18.0972C64.4446 18.3749 64.0001 18.8749 64.0001 19.5977C64.0001 19.7638 64.0001 19.9305 64.0557 20.0972C64.1112 20.2638 64.2223 20.4311 64.3334 20.5416C64.5001 20.7088 64.6112 20.8194 64.7779 20.9305C64.9446 21.0972 65.1112 21.2083 65.3334 21.3194C65.5557 21.4305 65.7779 21.5422 66.0001 21.6527C66.1668 21.7638 66.4446 21.8199 66.7779 21.9305C67.1112 22.0416 67.389 22.1527 67.6112 22.2083C67.8334 22.2638 68.1668 22.3755 68.5557 22.4861C68.9446 22.5972 69.2779 22.7083 69.5001 22.7638C70.6112 23.1527 71.5557 23.4866 72.389 23.8194C73.2223 24.2083 74.0557 24.6527 74.8334 25.2083C75.6668 25.7638 76.3334 26.5422 76.7779 27.4305C77.2223 28.3749 77.4446 29.4311 77.4446 30.4861C77.5557 32.7644 76.5557 34.9305 74.7779 36.3194C73.0001 37.7644 70.5557 38.4866 67.5001 38.4866C62.2223 38.4866 58.2223 37.4305 55.5557 35.3749Z" fill="#fff"/>
  <path fill-rule="evenodd" clip-rule="evenodd" d="M98.4998 36.5972C97.0553 37.8194 95.1664 38.4305 92.8331 38.4305C89.5553 38.4305 87.0553 37.5972 85.3887 35.9861C83.722 34.3749 82.8887 32.0972 82.8887 29.2083V18.4861H79.8887V13.0416H82.8887V4.59717H90.1664V13.0416H96.3887V18.4861H90.1664V29.3194C90.1109 30.1527 90.3331 30.9305 90.8887 31.5972C91.3887 32.0972 92.0553 32.4305 92.7776 32.3749C93.6109 32.4305 94.4442 32.0972 94.9998 31.4861L98.4998 36.5972Z" fill="#fff"/>
  <path fill-rule="evenodd" clip-rule="evenodd" d="M125.055 13.0415V37.9304H118.611L118.222 34.9859C116.334 37.2082 113.611 38.4859 110.722 38.4304C108.055 38.4859 105.555 37.4304 103.723 35.4859C101.833 33.5971 100.778 30.9859 100.889 28.3193V13.0415H108.167V27.4304C108.111 28.6526 108.611 29.8748 109.5 30.7082C110.389 31.5971 111.612 32.0971 112.833 32.0415C114.167 32.0971 115.444 31.5971 116.389 30.7082C117.334 29.8748 117.889 28.7082 117.889 27.4304V13.0415H125.055Z" fill="#fff"/>
  <path fill-rule="evenodd" clip-rule="evenodd" d="M145.778 30.9865C146.722 30.2643 147.445 29.2638 147.889 28.0977V22.8199C147.445 21.6532 146.722 20.6532 145.722 19.931C144.833 19.2088 143.666 18.8199 142.555 18.8199C140.945 18.7643 139.389 19.4865 138.333 20.7088C137.222 22.0421 136.667 23.7082 136.722 25.431C136.667 27.1532 137.222 28.8199 138.333 30.1532C139.389 31.3754 140.945 32.0977 142.555 32.0415C143.722 32.0977 144.833 31.7088 145.778 30.9865ZM155.055 0.597656V37.931L148.611 37.9865L148.222 35.3749C146.389 37.3754 143.777 38.4865 141.111 38.4304C137.889 38.5421 134.833 37.1532 132.778 34.7088C130.611 32.2088 129.556 29.1532 129.556 25.4865C129.556 21.8199 130.611 18.7088 132.778 16.2643C134.833 13.8199 137.889 12.4865 141.111 12.5421C143.666 12.4865 146.056 13.4865 147.889 15.2088V0.597656H155.055Z" fill="#fff"/>
  <path fill-rule="evenodd" clip-rule="evenodd" d="M161.611 37.9307H168.889V13.0418H161.611V37.9307ZM162.389 7.54178C161.611 6.81955 161.167 5.764 161.167 4.65289C161.167 3.54178 161.611 2.48622 162.389 1.764C164 0.152886 166.556 0.152886 168.167 1.764C168.945 2.48622 169.389 3.54178 169.389 4.65289C169.389 5.764 168.945 6.81955 168.167 7.54178C166.556 9.15289 163.945 9.15289 162.389 7.54178Z" fill="#fff"/>
  <path fill-rule="evenodd" clip-rule="evenodd" d="M191.167 30.2086C192.278 28.9308 192.89 27.2641 192.833 25.5424C192.89 23.8197 192.278 22.153 191.167 20.8197C189.167 18.4863 185.667 18.2641 183.333 20.2641C183.111 20.4308 182.945 20.5974 182.778 20.8197C181.667 22.153 181.111 23.8197 181.167 25.5424C181.111 27.2641 181.667 28.9308 182.778 30.2086C184.834 32.5419 188.389 32.7085 190.722 30.653C190.889 30.5424 191.056 30.3752 191.167 30.2086ZM177.667 34.7091C175.223 32.2641 173.889 28.9308 174.001 25.4863C174.001 18.3197 179.834 12.4863 187 12.4863C194.167 12.4863 200 18.3197 200 25.4863C199.889 32.7647 193.945 38.5419 186.667 38.4308C183.278 38.3752 180.112 37.0419 177.667 34.7091Z" fill="#fff"/>
</svg>
